<svg xmlns="http://www.w3.org/2000/svg" width="18" height="19" viewBox="0 0 18 19">
    <path fill="#ffffff" fill-rule="evenodd" d="M5.238 18.25c-.586 0-1.16-.111-1.722-.334a4.082 4.082 0 0 1-1.477-1.002 4.392 4.392 0 0 1-1.178-2.039c-.199-.773-.199-1.553 0-2.338.2-.785.592-1.459 1.178-2.021L11.25 1.27C11.93.59 12.762.25 13.746.25s1.822.346 2.514 1.037c.691.692 1.037 1.53 1.037 2.514 0 .984-.34 1.816-1.02 2.496l-7.84 7.84c-.492.492-1.095.738-1.81.738-.715 0-1.318-.246-1.81-.738-.493-.492-.739-1.096-.739-1.81 0-.716.246-1.32.738-1.811l6.012-5.977a.334.334 0 0 1 .281-.14c.118 0 .211.046.282.14l.21.176c.094.094.141.2.141.316 0 .117-.047.211-.14.282l-5.977 6.011a1.369 1.369 0 0 0-.422 1.002c0 .387.14.72.422 1.002.281.281.615.422 1.002.422s.72-.14 1.002-.422l7.84-7.805a2.44 2.44 0 0 0 .703-1.74c0-.668-.234-1.236-.703-1.705a2.322 2.322 0 0 0-1.705-.703 2.44 2.44 0 0 0-1.74.703L2.812 11.29a3.372 3.372 0 0 0-.985 2.426c0 .937.334 1.74 1.002 2.408.668.668 1.47 1.002 2.408 1.002s1.746-.328 2.426-.984l7.664-7.664a.334.334 0 0 1 .281-.141c.118 0 .223.047.317.14l.176.211c.093.07.14.165.14.282 0 .117-.047.21-.14.281l-7.665 7.664c-.421.445-.914.78-1.476 1.002a4.643 4.643 0 0 1-1.723.334z"/>
</svg>
