<svg xmlns="http://www.w3.org/2000/svg" width="23" height="18" viewBox="0 0 23 18">
    <path fill="#FFF" fill-rule="evenodd" d="M20.844.75c.599 0 1.108.21 1.527.629.42.42.629.928.629 1.527v12.938a2.08 2.08 0 0 1-.629 1.527 2.08 2.08 0 0 1-1.527.629H2.156a2.08 2.08 0 0 1-1.527-.629A2.08 2.08 0 0 1 0 15.844V2.906c0-.599.21-1.108.629-1.527A2.08 2.08 0 0 1 2.156.75h18.688zm.718 15.094V2.906a.7.7 0 0 0-.202-.516.7.7 0 0 0-.516-.203H2.156a.7.7 0 0 0-.516.203.7.7 0 0 0-.202.516v12.938a.7.7 0 0 0 .202.516.7.7 0 0 0 .516.203h18.688a.7.7 0 0 0 .516-.203.7.7 0 0 0 .203-.516zM5.032 8.297a2.42 2.42 0 0 1-1.775-.741 2.42 2.42 0 0 1-.741-1.775c0-.689.247-1.28.74-1.774a2.42 2.42 0 0 1 1.775-.741c.69 0 1.28.247 1.775.74a2.42 2.42 0 0 1 .74 1.775 2.42 2.42 0 0 1-.74 1.775 2.42 2.42 0 0 1-1.775.74zm0-3.594c-.3 0-.555.105-.764.315a1.04 1.04 0 0 0-.315.763c0 .3.105.554.315.764.21.21.464.314.763.314.3 0 .554-.104.764-.314.21-.21.314-.464.314-.764s-.104-.554-.314-.763a1.04 1.04 0 0 0-.764-.315zm9.298 1.033c.21-.21.464-.314.764-.314s.554.105.763.314l3.954 3.953c.21.21.314.465.314.764v4.133a.52.52 0 0 1-.157.382.52.52 0 0 1-.382.157H3.414a.52.52 0 0 1-.382-.157.52.52 0 0 1-.157-.382v-1.258c0-.3.105-.554.314-.764l3.954-3.953c.21-.21.464-.314.763-.314.3 0 .554.105.764.314l1.393 1.393 4.267-4.268zm4.357 7.952v-3.1l-3.593-3.594-5.031 5.031L7.905 9.87l-3.593 3.594v.225h14.375z"/>
</svg>
